<?xml version="1.0" encoding="iso-8859-1"?>
<!-- Generator: Adobe Illustrator 19.0.0, SVG Export Plug-In . SVG Version: 6.00 Build 0)  -->
<svg version="1.1" id="Layer_1" xmlns="http://www.w3.org/2000/svg" xmlns:xlink="http://www.w3.org/1999/xlink" x="0px" y="0px"
	 viewBox="0 0 495 495" style="enable-background:new 0 0 495 495;" xml:space="preserve">
<g>
	<rect x="70" y="33.102" style="fill:#00E7F0;" width="140" height="60"/>
	<path style="fill:#FFDA44;" d="M184.398,391.898C121.319,391.898,70,340.579,70,277.5s51.319-114.398,114.398-114.398
		c23.306,0,45.002,7.012,63.102,19.027V93.102H0v368.795h247.5V372.87C229.4,384.886,207.704,391.898,184.398,391.898z"/>
	<path style="fill:#FFCD00;" d="M247.5,93.102v89.027c30.889,20.506,51.295,55.597,51.295,95.37s-20.407,74.865-51.295,95.37v89.027
		H495V93.102H247.5z M435,203.102H335v-40h100V203.102z"/>
	<path style="fill:#2488FF;" d="M130,277.5c0-29.995,24.403-54.398,54.398-54.398v-60C121.319,163.102,70,214.421,70,277.5
		s51.319,114.398,114.398,114.398v-60C154.403,331.898,130,307.495,130,277.5z"/>
	<path style="fill:#005ECE;" d="M184.398,223.102c29.995,0,54.397,24.403,54.397,54.398s-24.403,54.398-54.397,54.398v60
		c23.306,0,45.002-7.012,63.102-19.027c30.889-20.506,51.295-55.597,51.295-95.37s-20.407-74.865-51.295-95.37
		c-18.1-12.016-39.796-19.027-63.102-19.027V223.102z"/>
	<path style="fill:#9BFBFF;" d="M130,277.5c0,29.995,24.403,54.398,54.398,54.398c29.995,0,54.397-24.403,54.397-54.398
		s-24.403-54.398-54.397-54.398C154.403,223.102,130,247.505,130,277.5z"/>
	<rect x="335" y="163.102" style="fill:#FFFFFF;" width="100" height="40"/>
</g>
<g>
</g>
<g>
</g>
<g>
</g>
<g>
</g>
<g>
</g>
<g>
</g>
<g>
</g>
<g>
</g>
<g>
</g>
<g>
</g>
<g>
</g>
<g>
</g>
<g>
</g>
<g>
</g>
<g>
</g>
</svg>
