<?xml version="1.0" encoding="iso-8859-1"?>
<!-- Generator: Adobe Illustrator 19.0.0, SVG Export Plug-In . SVG Version: 6.00 Build 0)  -->
<svg version="1.1" id="Layer_1" xmlns="http://www.w3.org/2000/svg" xmlns:xlink="http://www.w3.org/1999/xlink" x="0px" y="0px"
	 viewBox="0 0 512.001 512.001" style="enable-background:new 0 0 512.001 512.001;" xml:space="preserve">
<g>
	<path style="fill:#F95428;" d="M11.157,129.296l-3.132-4.315c-13.645-18.796-9.468-45.095,9.328-58.739l0,0
		c18.796-13.645,45.095-9.468,58.739,9.328l3.132,4.315L11.157,129.296z"/>
	<path style="fill:#F95428;" d="M500.844,129.296l3.132-4.315c13.645-18.796,9.468-45.095-9.328-58.739l0,0
		c-18.796-13.645-45.095-9.468-58.739,9.328l-3.132,4.315L500.844,129.296z"/>
	<rect x="153.153" y="411.136" style="fill:#F95428;" width="205.692" height="33.763"/>
</g>
<polyline style="fill:#2BA5F7;" points="205.548,411.136 451.957,102.533 473.281,121.488 333.491,411.136 "/>
<polyline style="fill:#F7B239;" points="306.456,411.136 60.048,102.533 38.724,121.488 178.513,411.136 "/>
<polygon style="fill:#9AD14B;" points="205.548,411.136 306.454,411.136 256,347.95 "/>
<path style="fill:#F7B239;" d="M447.917,453.783H64.089c-4.907,0-8.885-3.978-8.885-8.885c0-4.907,3.978-8.885,8.885-8.885h383.829
	c4.908,0,8.885,3.978,8.885,8.885C456.802,449.805,452.825,453.783,447.917,453.783z"/>
<g>
</g>
<g>
</g>
<g>
</g>
<g>
</g>
<g>
</g>
<g>
</g>
<g>
</g>
<g>
</g>
<g>
</g>
<g>
</g>
<g>
</g>
<g>
</g>
<g>
</g>
<g>
</g>
<g>
</g>
</svg>
