<?xml version="1.0" ?><!DOCTYPE svg  PUBLIC '-//W3C//DTD SVG 1.1//EN'  'http://www.w3.org/Graphics/SVG/1.1/DTD/svg11.dtd'><svg enable-background="new 0 0 128 128" id="Слой_1" version="1.1" viewBox="0 0 128 128" xml:space="preserve" xmlns="http://www.w3.org/2000/svg" xmlns:xlink="http://www.w3.org/1999/xlink"><g><g><circle cx="64" cy="64" fill="#C55141" r="62"/><circle cx="64" cy="64" fill="none" r="62" stroke="#1E1E1E" stroke-miterlimit="10" stroke-width="1.25"/><g opacity="0.3"><circle cx="53.5" cy="23.9" fill="#060808" r="13"/><circle cx="72.5" cy="94.2" fill="#060808" r="10"/><circle cx="107.8" cy="72.2" fill="#060808" r="7.5"/><circle cx="54.8" cy="81.4" fill="#060808" r="5.5"/><circle cx="42" cy="45.7" fill="#060808" r="4"/><circle cx="87" cy="112.7" fill="#060808" r="3.5"/><circle cx="22" cy="36.7" fill="#060808" r="4"/><circle cx="21" cy="93.7" fill="#060808" r="5"/><circle cx="13" cy="83.7" fill="#060808" r="3"/><circle cx="94.8" cy="30.2" fill="#060808" r="10"/></g><g><circle cx="72.5" cy="94.2" fill="none" r="10" stroke="#1E1E1E" stroke-miterlimit="10" stroke-width="1.25"/><circle cx="107.8" cy="72.2" fill="none" r="7.5" stroke="#1E1E1E" stroke-miterlimit="10" stroke-width="1.25"/><circle cx="54.8" cy="81.4" fill="none" r="5.5" stroke="#1E1E1E" stroke-miterlimit="10" stroke-width="1.25"/><circle cx="54.8" cy="81.4" fill="none" r="5.5" stroke="#1E1E1E" stroke-miterlimit="10" stroke-width="1.25"/><circle cx="42" cy="45.7" fill="none" r="4" stroke="#1E1E1E" stroke-miterlimit="10" stroke-width="1.25"/><circle cx="87" cy="112.7" fill="none" r="3.5" stroke="#1E1E1E" stroke-miterlimit="10" stroke-width="1.25"/><circle cx="22" cy="36.7" fill="none" r="4" stroke="#1E1E1E" stroke-miterlimit="10" stroke-width="1.25"/><circle cx="21" cy="93.7" fill="none" r="5" stroke="#1E1E1E" stroke-miterlimit="10" stroke-width="1.25"/><circle cx="13" cy="83.7" fill="none" r="3" stroke="#1E1E1E" stroke-miterlimit="10" stroke-width="1.25"/><circle cx="53.5" cy="23.9" fill="none" r="13" stroke="#1E1E1E" stroke-miterlimit="10" stroke-width="1.25"/><circle cx="94.8" cy="30.2" fill="none" r="10" stroke="#1E1E1E" stroke-miterlimit="10" stroke-width="1.25"/></g><g><g opacity="0.2"><path d="M75.5,87.2c2,0,3.8,0.6,5.4,1.6c-1.8-2.8-4.9-4.6-8.4-4.6c-5.5,0-10,4.5-10,10c0,3.5,1.8,6.6,4.6,8.4      c-1-1.6-1.6-3.4-1.6-5.4C65.5,91.6,70,87.2,75.5,87.2z" fill="#0C0E0E"/></g><g opacity="0.2"><path d="M110.8,67.7c1.3,0,2.5,0.3,3.6,0.9c-1.3-2.3-3.7-3.9-6.6-3.9c-4.1,0-7.5,3.4-7.5,7.5      c0,2.8,1.6,5.3,3.9,6.6c-0.6-1.1-0.9-2.3-0.9-3.6C103.3,71,106.7,67.7,110.8,67.7z" fill="#0C0E0E"/></g><g opacity="0.2"><path d="M56.8,77.9c1,0,1.9,0.3,2.8,0.7c-1-1.6-2.7-2.7-4.8-2.7c-3,0-5.5,2.5-5.5,5.5c0,2,1.1,3.8,2.7,4.8      c-0.5-0.8-0.7-1.8-0.7-2.8C51.3,80.4,53.8,77.9,56.8,77.9z" fill="#0C0E0E"/></g><g opacity="0.2"><path d="M44,43.7c0.6,0,1.1,0.1,1.6,0.4c-0.6-1.4-2-2.4-3.6-2.4c-2.2,0-4,1.8-4,4c0,1.6,1,3,2.4,3.6      c-0.2-0.5-0.4-1.1-0.4-1.6C40,45.5,41.8,43.7,44,43.7z" fill="#0C0E0E"/></g><g opacity="0.2"><path d="M89,111.2c0.4,0,0.9,0.1,1.3,0.2c-0.5-1.3-1.8-2.2-3.3-2.2c-1.9,0-3.5,1.6-3.5,3.5      c0,1.5,0.9,2.8,2.2,3.3c-0.2-0.4-0.2-0.8-0.2-1.3C85.5,112.7,87.1,111.2,89,111.2z" fill="#0C0E0E"/></g><g opacity="0.2"><path d="M24,34.7c0.6,0,1.1,0.1,1.6,0.4c-0.6-1.4-2-2.4-3.6-2.4c-2.2,0-4,1.8-4,4c0,1.6,1,3,2.4,3.6      c-0.2-0.5-0.4-1.1-0.4-1.6C20,36.5,21.8,34.7,24,34.7z" fill="#0C0E0E"/></g><g opacity="0.2"><path d="M23,90.7c0.9,0,1.7,0.2,2.4,0.6c-0.8-1.6-2.5-2.6-4.4-2.6c-2.8,0-5,2.2-5,5c0,1.9,1.1,3.5,2.6,4.4      c-0.4-0.7-0.6-1.5-0.6-2.4C18,92.9,20.3,90.7,23,90.7z" fill="#0C0E0E"/></g><g opacity="0.2"><path d="M15,82.7c0.3,0,0.6,0.1,0.9,0.1c-0.4-1.2-1.5-2.1-2.9-2.1c-1.7,0-3,1.3-3,3c0,1.4,0.9,2.5,2.1,2.9      C12.1,86.3,12,86,12,85.7C12,84,13.4,82.7,15,82.7z" fill="#0C0E0E"/></g><g opacity="0.2"><path d="M56.5,13.9c2.8,0,5.4,0.9,7.6,2.4c-2.4-3.3-6.2-5.4-10.6-5.4c-7.2,0-13,5.8-13,13      c0,4.4,2.2,8.2,5.4,10.6c-1.5-2.1-2.4-4.7-2.4-7.6C43.5,19.7,49.4,13.9,56.5,13.9z" fill="#0C0E0E"/></g><g opacity="0.2"><path d="M97.8,23.2c2,0,3.8,0.6,5.4,1.6c-1.8-2.8-4.9-4.6-8.4-4.6c-5.5,0-10,4.5-10,10c0,3.5,1.8,6.6,4.6,8.4      c-1-1.6-1.6-3.4-1.6-5.4C87.8,27.6,92.3,23.2,97.8,23.2z" fill="#0C0E0E"/></g></g></g><path d="M18.4,106c1.1,1.2,2.3,2.4,3.5,3.5l38.3-33.7l-8.1-8.1L18.4,106z" fill="#FFFFFF"/><g opacity="0.2"><path d="M102.5,15.5C111,26,116,39.4,116,54c0,34.2-27.8,62-62,62c-14.6,0-28-5-38.5-13.5    C26.8,116.8,44.3,126,64,126c34.2,0,62-27.8,62-62C126,44.3,116.8,26.8,102.5,15.5z" fill="#060808"/></g><g><g><path d="M41.7,87.1l-1.3,0.5l0.5-1.3c2.8-7.6,7.2-14.6,13-20.3l0,0l8.2,8.2l0,0C56.3,79.9,49.4,84.3,41.7,87.1z" fill="#FEE061"/><path d="M47.1,81.4l-0.9,0.3l0.3-0.9c1.9-5.1,5.4-9.1,9.2-13l-0.6-0.6l4.9,4.9l0,0     C56.3,76,52.2,79.6,47.1,81.4z" fill="#FFFFFF" opacity="0.8"/></g><g><g><g><path d="M53.7,65.8l8.5,8.5c1.2-0.2,2.3-0.6,3.5-0.9L54.6,62.3C54.2,63.5,53.9,64.7,53.7,65.8z" fill="#3D3E3D"/></g><g><path d="M61.8,74.7l-8.5-8.5c-0.1-0.1-0.2-0.3-0.1-0.5c0.2-1.1,0.5-2.2,0.9-3.6c0.1-0.3,0.4-0.4,0.6-0.3       c0.3,0.1,0.4,0.4,0.3,0.6c-0.4,1.2-0.7,2.3-0.9,3.2l8.1,8.1c0.9-0.2,2-0.5,3.2-0.9c0.3-0.1,0.6,0.1,0.6,0.3       c0.1,0.3-0.1,0.6-0.3,0.6c-1.4,0.4-2.5,0.7-3.6,0.9C62.1,74.9,61.9,74.8,61.8,74.7z" fill="#1E1E1E"/></g><g opacity="0.1"><path d="M83,64.8c-5.9,3.1-9.6,8.2-16.4,9.5l-1.2,2.6l0.3,0.3l1.4-0.3c6.9-1.4,10.8-6.5,17-9.8       C84,66.3,83.6,65.4,83,64.8z" fill="#060808"/></g><g><path d="       M63.3,45.1" fill="none" stroke="#1E1E1E" stroke-linecap="round" stroke-linejoin="round" stroke-miterlimit="10" stroke-width="1.0342"/></g><g><path d="M99.7,12.3l16,16c3.3-8.2,7.8-14.4,7.8-23.7l0,0h0C114.1,4.5,107.9,9,99.7,12.3z" fill="#FEE061"/></g><g><path d="M123.5,4.5L123.5,4.5c-25.8,0-64.6,31.6-69.8,56.9l0,0c5-24.3,45-53.8,69.8-54.6       C123.5,6,123.5,5.3,123.5,4.5L123.5,4.5z" fill="#FFFFFF"/></g><g><path d="M115.4,28.6l-16-16c-0.2-0.2-0.2-0.5,0-0.7c0.2-0.2,0.5-0.2,0.7,0l16,16c0.2,0.2,0.2,0.5,0,0.7       S115.6,28.8,115.4,28.6z" fill="#1E1E1E"/></g><g><circle cx="94.5" cy="33.5" fill="#C0E5E3" r="8"/></g><g><path d="M100.2,29.2c1.4,1.4,2.2,3.2,2.3,5c0.2-2.3-0.6-4.6-2.3-6.3c-3.1-3.1-8.2-3.1-11.3,0       c-1.7,1.7-2.5,4.1-2.3,6.3c0.2-1.8,0.9-3.6,2.3-5C92,26,97,26,100.2,29.2z" fill="#FFFFFF"/></g><g><path d="M88.5,39.5c-3.3-3.3-3.3-8.7,0-12.1c3.3-3.3,8.7-3.3,12.1,0c3.3,3.3,3.3,8.7,0,12.1       C97.2,42.8,91.8,42.8,88.5,39.5z M99.8,28.2c-2.9-2.9-7.7-2.9-10.6,0c-2.9,2.9-2.9,7.7,0,10.6c2.9,2.9,7.7,2.9,10.6,0       C102.7,35.9,102.7,31.1,99.8,28.2z" fill="#1E1E1E"/></g><g><path d="M66.2,74.7L53.3,61.8c-0.1-0.1-0.2-0.3-0.1-0.5c2.5-12,12.7-26.3,27.4-38.2C95.2,11.1,111.2,4,123.5,4       c0.3,0,0.5,0.2,0.5,0.5c0,12.2-7.1,28.3-19.1,43C93,62.1,78.7,72.4,66.7,74.8C66.5,74.9,66.4,74.8,66.2,74.7z M54.2,61.2       l12.5,12.5c11.7-2.5,25.6-12.6,37.4-26.9C115.8,32.5,122.8,17,123,5C111,5.2,95.5,12.2,81.2,23.9       C66.8,35.6,56.8,49.5,54.2,61.2z" fill="#1E1E1E"/></g><g><path d="M123.5,4.5L123.5,4.5L123.5,4.5c-25.8,0-64.6,31.6-69.8,56.9l12.9,12.9C91.9,69.1,123.5,30.3,123.5,4.5       z" fill="#D8D7D8"/></g><g><path d="M53.7,61.4l12.9,12.9C72.9,73,79.5,69.7,86,65L63,42C58.3,48.5,55,55.1,53.7,61.4z" fill="#9F9F9F"/></g><g opacity="0.1"><polygon fill="#060808" points="60.9,68.6 72.2,57.3 63.8,71.5      "/></g><g><path d="M99,11.5L116.5,29c4.4-8.5,7-17,7-24.5l0,0h0C116,4.5,107.5,7.2,99,11.5z" fill="#32A0D7"/></g><g><path d="M123.5,4.5L123.5,4.5c-25.8,0-64.6,31.6-69.8,56.9l0,0C67.9,34.5,99.1,6.8,123.5,5.3       C123.5,4.5,123.5,5.3,123.5,4.5L123.5,4.5z" fill="#FFFFFF"/></g><g><path d="M74,50.3c-0.3-0.3-0.3-0.8,0-1.1c0.3-0.3,0.8-0.3,1.1,0c0.3,0.3,0.3,0.8,0,1.1       C74.8,50.6,74.3,50.6,74,50.3z" fill="#1E1E1E"/></g><g><path d="M69.9,46.2c-0.3-0.3-0.3-0.8,0-1.1c0.3-0.3,0.8-0.3,1.1,0c0.3,0.3,0.3,0.8,0,1.1       C70.7,46.5,70.2,46.5,69.9,46.2z" fill="#1E1E1E"/></g><g><path d="M65.9,42.2c-0.3-0.3-0.3-0.8,0-1.1c0.3-0.3,0.8-0.3,1.1,0c0.3,0.3,0.3,0.8,0,1.1       C66.7,42.5,66.2,42.5,65.9,42.2z" fill="#1E1E1E"/></g><g><path d="M86.1,62.4c-0.3-0.3-0.3-0.8,0-1.1c0.3-0.3,0.8-0.3,1.1,0c0.3,0.3,0.3,0.8,0,1.1       C86.9,62.7,86.4,62.7,86.1,62.4z" fill="#1E1E1E"/></g><g><path d="M82,58.3c-0.3-0.3-0.3-0.8,0-1.1c0.3-0.3,0.8-0.3,1.1,0c0.3,0.3,0.3,0.8,0,1.1       C82.8,58.6,82.3,58.6,82,58.3z" fill="#1E1E1E"/></g><g><path d="M78,54.3c-0.3-0.3-0.3-0.8,0-1.1c0.3-0.3,0.8-0.3,1.1,0s0.3,0.8,0,1.1C78.8,54.6,78.3,54.6,78,54.3z" fill="#1E1E1E"/></g><g><g><path d="M101.5,18.5c-0.3-0.3-0.3-0.8,0-1.1c0.3-0.3,0.8-0.3,1.1,0c0.3,0.3,0.3,0.8,0,1.1        C102.3,18.8,101.8,18.8,101.5,18.5z" fill="#1E1E1E"/></g><g><path d="M98,15c-0.3-0.3-0.3-0.8,0-1.1c0.3-0.3,0.8-0.3,1.1,0c0.3,0.3,0.3,0.8,0,1.1        C98.8,15.4,98.3,15.4,98,15z" fill="#1E1E1E"/></g><g><path d="M113,30c-0.3-0.3-0.3-0.8,0-1.1c0.3-0.3,0.8-0.3,1.1,0c0.3,0.3,0.3,0.8,0,1.1        C113.8,30.3,113.3,30.3,113,30z" fill="#1E1E1E"/></g><g><path d="M109.5,26.6c-0.3-0.3-0.3-0.8,0-1.1c0.3-0.3,0.8-0.3,1.1,0c0.3,0.3,0.3,0.8,0,1.1        C110.3,26.9,109.8,26.9,109.5,26.6z" fill="#1E1E1E"/></g><g><path d="M105.5,22.5c-0.3-0.3-0.3-0.8,0-1.1s0.8-0.3,1.1,0s0.3,0.8,0,1.1S105.8,22.8,105.5,22.5z" fill="#1E1E1E"/></g></g><g><path d="M66.6,74.3l-2,10.6c-0.2,0.5-0.1,1.1,0.3,1.5l2.9,2.9c0.5,0.5,1.3,0.5,1.8,0L83,70.5v-3.4       C83,67.1,73.4,72.9,66.6,74.3z" fill="#C7B13C"/></g><g opacity="0.1"><path d="M83,70.5v-3.4c0,0-9.6,5.8-16.4,7.2L66,77.7l1.3-0.3c4.8-1,10-3.2,15.3-6.3L83,70.5z" fill="#060808"/></g><g><path d="M67.4,89.6l-2.9-2.9c-0.5-0.5-0.7-1.3-0.4-2l2-10.5c0.1-0.3,0.3-0.5,0.6-0.4c0.3,0.1,0.5,0.3,0.4,0.6       l-2,10.6c0,0,0,0.1,0,0.1C65,85.4,65,85.7,65.3,86l2.9,2.9c0.3,0.3,0.8,0.3,1.1,0l13.2-18.5l0-3.2c0-0.3,0.2-0.5,0.5-0.5       c0.3,0,0.5,0.2,0.5,0.5v3.4c0,0.1,0,0.2-0.1,0.3L70.1,89.5c0,0,0,0-0.1,0.1C69.3,90.3,68.1,90.3,67.4,89.6z" fill="#1E1E1E"/></g><g><path d="M53.7,61.4l-10.6,2c-0.5,0.2-1.1,0.1-1.5-0.3l-2.9-2.9c-0.5-0.5-0.5-1.3,0-1.8l18.7-13.3h3.3       C60.8,45.1,55.1,54.7,53.7,61.4z" fill="#C7B13C"/></g><g><path d="M57.5,45.1L38.8,58.4c-0.5,0.5-1,0.8-0.5,1.3l22.5-14.7C61,44.7,57.5,45.1,57.5,45.1z" fill="#FFFFFF"/></g><g opacity="0.1"><path d="M60.8,45.1h-3.3l-0.7,0.5c-3.1,5.2-5.3,10.3-6.3,15.1l-0.3,1.3l3.5-0.6C55.1,54.7,60.8,45.1,60.8,45.1z       " fill="#060808"/></g><g><path d="M41.3,63.5l-2.9-2.9c-0.7-0.7-0.7-1.9,0-2.6c0,0,0,0,0.1-0.1l18.7-13.3c0.1-0.1,0.2-0.1,0.3-0.1       l3.3-0.1c0.3,0,0.5,0.2,0.5,0.5c0,0.3-0.2,0.5-0.5,0.5l-3.2,0.1L39.1,58.8c-0.3,0.3-0.3,0.8,0,1.1l2.9,2.9       c0.2,0.2,0.6,0.3,0.9,0.2c0,0,0.1,0,0.1,0l10.6-2c0.3-0.1,0.5,0.1,0.6,0.4c0.1,0.3-0.1,0.6-0.4,0.6l-10.5,2       C42.6,64.2,41.8,64,41.3,63.5z" fill="#1E1E1E"/></g><g><path d="M115.9,29.2L98.8,12.1c-0.2-0.2-0.2-0.5,0-0.7c0.2-0.2,0.5-0.2,0.7,0l17.1,17.1c0.2,0.2,0.2,0.5,0,0.7       C116.4,29.4,116.1,29.4,115.9,29.2z" fill="#1E1E1E"/></g><g><circle cx="94.5" cy="33.5" fill="#3D3E3D" r="8"/></g><g><g><path d="M100.2,30.2c1.3,1.3,2,2.9,2.3,4.5c0.4-2.4-0.4-5-2.3-6.8c-3.1-3.1-8.2-3.1-11.3,0        c-1.9,1.9-2.6,4.4-2.3,6.8c0.2-1.6,1-3.2,2.3-4.5C92,27,97,27,100.2,30.2z" fill="#FFFFFF"/></g></g><g><path d="M88.5,39.5c-3.3-3.3-3.3-8.7,0-12.1c3.3-3.3,8.7-3.3,12.1,0c3.3,3.3,3.3,8.7,0,12.1       C97.2,42.8,91.8,42.8,88.5,39.5z M99.8,28.2c-2.9-2.9-7.7-2.9-10.6,0c-2.9,2.9-2.9,7.7,0,10.6c2.9,2.9,7.7,2.9,10.6,0       C102.7,35.9,102.7,31.1,99.8,28.2z" fill="#1E1E1E"/></g><g><path d="M66.2,74.7L53.3,61.8c-0.1-0.1-0.2-0.3-0.1-0.5c2.5-12,12.7-26.3,27.4-38.2C95.2,11.1,111.2,4,123.5,4       c0.3,0,0.5,0.2,0.5,0.5c0,12.2-7.1,28.3-19.1,43C93,62.1,78.7,72.4,66.7,74.8C66.5,74.9,66.4,74.8,66.2,74.7z M54.2,61.2       l12.5,12.5c11.7-2.5,25.6-12.6,37.4-26.9C115.8,32.5,122.8,17,123,5C111,5.2,95.5,12.2,81.2,23.9       C66.8,35.6,56.8,49.5,54.2,61.2z" fill="#1E1E1E"/></g><g><path d="M104.4,31.3c-0.3-0.3-0.3-0.8,0-1.1c0.3-0.3,0.8-0.3,1.1,0c0.3,0.3,0.3,0.8,0,1.1       C105.2,31.6,104.7,31.6,104.4,31.3z" fill="#1E1E1E"/></g><g><path d="M104.4,36.8c-0.3-0.3-0.3-0.8,0-1.1c0.3-0.3,0.8-0.3,1.1,0c0.3,0.3,0.3,0.8,0,1.1       C105.2,37.1,104.7,37.1,104.4,36.8z" fill="#1E1E1E"/></g><g><path d="M101.6,41.7c-0.3-0.3-0.3-0.8,0-1.1s0.8-0.3,1.1,0s0.3,0.8,0,1.1C102.4,42,101.9,42,101.6,41.7z" fill="#1E1E1E"/></g><g><path d="M96.7,44.5c-0.3-0.3-0.3-0.8,0-1.1c0.3-0.3,0.8-0.3,1.1,0c0.3,0.3,0.3,0.8,0,1.1S97,44.8,96.7,44.5z" fill="#1E1E1E"/></g><g><path d="M91.2,44.5c-0.3-0.3-0.3-0.8,0-1.1c0.3-0.3,0.8-0.3,1.1,0c0.3,0.3,0.3,0.8,0,1.1       C92,44.8,91.5,44.8,91.2,44.5z" fill="#1E1E1E"/></g><g><path d="M86.3,41.7c-0.3-0.3-0.3-0.8,0-1.1s0.8-0.3,1.1,0s0.3,0.8,0,1.1S86.6,42,86.3,41.7z" fill="#1E1E1E"/></g><g><path d="M83.5,36.8c-0.3-0.3-0.3-0.8,0-1.1c0.3-0.3,0.8-0.3,1.1,0s0.3,0.8,0,1.1C84.3,37.1,83.8,37.1,83.5,36.8       z" fill="#1E1E1E"/></g><g><path d="M83.5,31.3c-0.3-0.3-0.3-0.8,0-1.1c0.3-0.3,0.8-0.3,1.1,0c0.3,0.3,0.3,0.8,0,1.1S83.8,31.6,83.5,31.3z" fill="#1E1E1E"/></g><g><path d="M86.3,26.4c-0.3-0.3-0.3-0.8,0-1.1s0.8-0.3,1.1,0c0.3,0.3,0.3,0.8,0,1.1S86.6,26.7,86.3,26.4z" fill="#1E1E1E"/></g><g><path d="M91.2,23.6c-0.3-0.3-0.3-0.8,0-1.1c0.3-0.3,0.8-0.3,1.1,0c0.3,0.3,0.3,0.8,0,1.1       C92,23.9,91.5,23.9,91.2,23.6z" fill="#1E1E1E"/></g><g><path d="M96.7,23.6c-0.3-0.3-0.3-0.8,0-1.1c0.3-0.3,0.8-0.3,1.1,0c0.3,0.3,0.3,0.8,0,1.1       C97.5,23.9,97,23.9,96.7,23.6z" fill="#1E1E1E"/></g><g><path d="M101.6,26.4c-0.3-0.3-0.3-0.8,0-1.1c0.3-0.3,0.8-0.3,1.1,0s0.3,0.8,0,1.1       C102.4,26.7,101.9,26.7,101.6,26.4z" fill="#1E1E1E"/></g><g><path d="M85.4,65.1L63.1,42.8c-0.2-0.2-0.2-0.5,0-0.7c0.2-0.2,0.5-0.2,0.7,0l22.3,22.3c0.2,0.2,0.2,0.5,0,0.7       C85.9,65.3,85.6,65.3,85.4,65.1z" fill="#1E1E1E"/></g></g><g><path d="M53.3,74.7L53.3,74.7c0.4,0.4,1.1,0.4,1.5,0l17.4-17.4c0.4-0.4,0.4-1.1,0-1.5v0c-0.4-0.4-1.1-0.4-1.5,0      L53.3,73.2C52.9,73.6,52.9,74.3,53.3,74.7z" fill="#C7B13C"/></g><g><path d="M53.2,74l19-17.6c0.3-0.3-0.1-0.5,0.3-0.3c-0.1-0.1-0.1-0.2-0.2-0.3c-0.4-0.4-1.1-0.4-1.5,0L53.3,73.2      c-0.4,0.4-0.4,1.1,0,1.5c0.1,0.1-0.1-0.1,0,0C53.1,74.3,52.9,74.3,53.2,74z" fill="#FFFFFF"/></g><g><path d="M52.9,75.1c-0.6-0.6-0.6-1.6,0-2.3l17.4-17.4c0.6-0.6,1.6-0.6,2.3,0c0.6,0.6,0.6,1.6,0,2.3L55.2,75.1      C54.6,75.7,53.6,75.7,52.9,75.1z M71.9,56.1c-0.2-0.2-0.6-0.2-0.8,0L53.7,73.5c-0.2,0.2-0.2,0.6,0,0.8c0.2,0.2,0.6,0.2,0.8,0      l17.4-17.4C72.1,56.7,72.1,56.4,71.9,56.1z" fill="#1E1E1E"/></g></g></g></g></svg>